<svg aria-hidden="true" style="position: absolute; width: 0; height: 0; overflow: hidden;" version="1.1" xmlns="http://www.w3.org/2000/svg" xmlns:xlink="http://www.w3.org/1999/xlink">
<defs>
<symbol id="icon-calculator" viewBox="0 0 64 64">
<path fill="#474f54" style="fill: var(--color1, #474f54)" d="M64 0v41.25l-3.75 3.875h-56.5l-3.75-3.875v-41.25z"></path>
<path fill="#32393f" style="fill: var(--color2, #32393f)" d="M64 0v41.25l-3.75 3.875h-28.25v-45.125z"></path>
<path fill="#dadae5" style="fill: var(--color3, #dadae5)" d="M22.625 50.875h18.75v11.25h-18.75z"></path>
<path fill="#c9c9d3" style="fill: var(--color4, #c9c9d3)" d="M32 50.875h9.375v11.25h-9.375z"></path>
<path fill="#efeff4" style="fill: var(--color5, #efeff4)" d="M0 41.25h64v11.5h-64z"></path>
<path fill="#dadae5" style="fill: var(--color3, #dadae5)" d="M32 41.25h32v11.5h-32z"></path>
<path fill="#efeff4" style="fill: var(--color5, #efeff4)" d="M15.125 60.25h33.75v3.75h-33.75z"></path>
<path fill="#dadae5" style="fill: var(--color3, #dadae5)" d="M32 60.25h16.875v3.75h-16.875z"></path>
<path fill="#549ef2" style="fill: var(--color6, #549ef2)" d="M20.75 7.5c-7.236 0-13.125 5.889-13.125 13.125s5.889 13.125 13.125 13.125 13.125-5.889 13.125-13.125-5.889-13.125-13.125-13.125zM20.75 26.25c-3.105-0.003-5.622-2.52-5.625-5.625v-0c0.003-3.105 2.52-5.622 5.625-5.625h0c3.105 0.003 5.622 2.52 5.625 5.625v0c-0.003 3.105-2.52 5.622-5.625 5.625h-0z"></path>
<path fill="#377fd2" style="fill: var(--color7, #377fd2)" d="M45.125 7.5h11.375v3.75h-11.375zM37.625 7.5h3.75v3.75h-3.75zM45.125 22.5h11.375v3.75h-11.375zM37.625 22.5h3.75v3.75h-3.75zM37.625 15h18.875v3.75h-18.875zM37.625 30h18.875v3.75h-18.875z"></path>
</symbol>
<symbol id="icon-karma" viewBox="0 0 64 64">
<path fill="#676e74" style="fill: var(--color8, #676e74)" d="M26.375 52.625h11.25v11.375h-11.25z"></path>
<path fill="#333637" style="fill: var(--color9, #333637)" d="M32 52.625h5.625v11.375h-5.625z"></path>
<path fill="#4c545a" style="fill: var(--color10, #4c545a)" d="M22.625 47h18.75v9.375h-18.75z"></path>
<path fill="#52585c" style="fill: var(--color11, #52585c)" d="M32 47h9.375v9.375h-9.375z"></path>
<path fill="#ffda2d" style="fill: var(--color12, #ffda2d)" d="M45.012 36.725c-2.325 1.913-3.637 4.612-3.637 7.425v2.85h-18.75v-2.85c0-2.85-1.238-5.512-3.3-7.125-5.062-3.938-7.95-9.862-7.95-16.275 0-0.009 0-0.019 0-0.030 0-6.434 2.952-12.179 7.576-15.954l0.037-0.029c3.712-3 8.25-4.737 13.012-4.737 1.462 0 2.962 0.15 4.425 0.45 8.1 1.688 14.475 8.45 15.9 16.663 1.275 7.5-1.425 14.85-7.313 19.612z"></path>
<path fill="#fdbf00" style="fill: var(--color13, #fdbf00)" d="M45.012 36.725c-2.325 1.913-3.637 4.612-3.637 7.425v2.85h-9.375v-47c1.462 0 2.962 0.15 4.425 0.45 8.1 1.688 14.475 8.45 15.9 16.663 1.275 7.5-1.425 14.85-7.313 19.612z"></path>
<path fill="#676e74" style="fill: var(--color8, #676e74)" d="M18.875 45.125h26.25v3.75h-26.25z"></path>
<path fill="#ff9100" style="fill: var(--color14, #ff9100)" d="M39.956 10.143l2.651 2.651-3.979 3.978-2.651-2.651z"></path>
<path fill="#fdbf00" style="fill: var(--color13, #fdbf00)" d="M25.372 24.727l2.651 2.651-3.979 3.979-2.651-2.651zM30.125 28.25h3.75v5.625h-3.75z"></path>
<path fill="#ff9100" style="fill: var(--color14, #ff9100)" d="M38.628 24.727l3.979 3.979-2.651 2.651-3.979-3.979zM39.5 18.875h5.625v3.75h-5.625z"></path>
<path fill="#fdbf00" style="fill: var(--color13, #fdbf00)" d="M24.044 10.143l3.979 3.979-2.651 2.65-3.979-3.978zM18.875 18.875h5.625v3.75h-5.625zM30.125 7.625h3.75v5.625h-3.75z"></path>
<path fill="#ffda2d" style="fill: var(--color12, #ffda2d)" d="M0 18.875h7.625v3.75h-7.625zM6.585 14.81l-5.75-3.75 2.080-3.12 5.75 3.75zM2.915 33.56l-2.080-3.12 5.75-3.75 2.080 3.12z"></path>
<path fill="#fdbf00" style="fill: var(--color13, #fdbf00)" d="M56.375 18.875h7.625v3.75h-7.625zM61.085 33.56l-5.75-3.75 2.080-3.12 5.75 3.75zM57.415 14.81l-2.080-3.12 5.75-3.75 2.080 3.12z"></path>
<path fill="#ff9100" style="fill: var(--color14, #ff9100)" d="M32 7.625h1.875v5.625h-1.875zM32 28.25h1.875v5.625h-1.875z"></path>
<path fill="#333637" style="fill: var(--color9, #333637)" d="M32 45.125h13.125v3.75h-13.125z"></path>
<path fill="#fdbf00" style="fill: var(--color13, #fdbf00)" d="M32 11.375c-5.175 0-9.375 4.2-9.375 9.375s4.2 9.375 9.375 9.375 9.375-4.2 9.375-9.375-4.2-9.375-9.375-9.375z"></path>
<path fill="#ff9100" style="fill: var(--color14, #ff9100)" d="M32 30.125v-18.75c5.175 0 9.375 4.2 9.375 9.375s-4.2 9.375-9.375 9.375z"></path>
<path fill="#ffda2d" style="fill: var(--color12, #ffda2d)" d="M30.125 18.875h3.75v3.75h-3.75z"></path>
<path fill="#fdbf00" style="fill: var(--color13, #fdbf00)" d="M32 18.875h1.875v3.75h-1.875z"></path>
</symbol>
<symbol id="icon-supervisor" viewBox="0 0 64 64">
<path fill="#676e74" style="fill: var(--color8, #676e74)" d="M56.842 7.158c-9.526-9.563-24.902-9.525-34.428 0-8.025 8.026-9.45 20.44-3.525 30.003l-2.513 2.55-1.356 6.144 4.214 4.214 5.093-2.408 2.512-2.55c3.633 2.288 8.052 3.645 12.787 3.645 6.73 0 12.82-2.741 17.214-7.168l0.002-0.002c9.563-9.526 9.525-24.902 0-34.428z"></path>
<path fill="#474f54" style="fill: var(--color1, #474f54)" d="M24.327 47.661l2.512-2.55c3.633 2.288 8.052 3.645 12.787 3.645 6.73 0 12.82-2.741 17.214-7.168l0.002-0.002c9.563-9.526 9.525-24.902 0-34.428l-40.26 40.26 2.652 2.651 5.093-2.408z"></path>
<path fill="#64e1dc" style="fill: var(--color15, #64e1dc)" d="M54.213 9.787c-3.723-3.732-8.87-6.041-14.557-6.041-0.010 0-0.020 0-0.029 0h0.002c-11.392 0-20.628 9.234-20.628 20.626 0 0.008 0 0.018 0 0.027 0 5.688 2.309 10.836 6.041 14.558l0 0c3.723 3.731 8.871 6.040 14.558 6.040 0.010 0 0.020 0 0.030 0h-0.002c11.392 0 20.626-9.234 20.626-20.626 0-0.008 0-0.018 0-0.028 0-5.687-2.309-10.835-6.041-14.557l-0-0z"></path>
<path fill="#00c8c8" style="fill: var(--color16, #00c8c8)" d="M60.254 24.372c0-0.008 0-0.018 0-0.028 0-5.687-2.309-10.835-6.041-14.557l-0-0-29.17 29.17c3.723 3.733 8.872 6.043 14.561 6.043 0.008 0 0.016 0 0.024 0h-0.001c11.392 0 20.626-9.235 20.626-20.627z"></path>
<path fill="#efeff4" style="fill: var(--color5, #efeff4)" d="M56.239 23.41c-0.184-0.307-2.98-4.914-7.281-8.368-2.63-2.113-5.822-3.796-9.33-3.796-9.242 0-16.314 11.669-16.61 12.165l-0.576 0.961 0.575 0.961c0.184 0.309 2.98 4.916 7.28 8.37 2.631 2.112 5.823 3.795 9.33 3.795 9.243 0 16.315-11.668 16.612-12.165l0.574-0.96-0.574-0.962z"></path>
<path fill="#dadae5" style="fill: var(--color3, #dadae5)" d="M56.239 25.333l0.574-0.96-0.574-0.962c-0.184-0.308-2.98-4.915-7.281-8.369l-18.66 18.66c2.63 2.113 5.822 3.796 9.33 3.796 9.242 0 16.314-11.668 16.61-12.165z"></path>
<path fill="#64e1dc" style="fill: var(--color15, #64e1dc)" d="M43.604 20.396c-1.015-1.019-2.42-1.65-3.972-1.65-0.001 0-0.002 0-0.004 0h0c-3.106 0.003-5.623 2.52-5.626 5.626v0c0 1.551 0.631 2.958 1.65 3.976 1.016 1.019 2.421 1.65 3.973 1.65 0.001 0 0.002 0 0.003 0h-0c3.105-0.004 5.622-2.521 5.625-5.626v-0c0-1.55-0.63-2.957-1.649-3.976z"></path>
<path fill="#00c8c8" style="fill: var(--color16, #00c8c8)" d="M45.253 24.372c0-1.55-0.63-2.957-1.649-3.976l-7.952 7.952c1.016 1.019 2.421 1.65 3.973 1.65 0.001 0 0.002 0 0.003 0h-0c3.105-0.004 5.622-2.521 5.625-5.626v-0z"></path>
<path fill="#676e74" style="fill: var(--color8, #676e74)" d="M40.954 23.046c-0.34-0.341-0.81-0.552-1.329-0.552-1.036 0-1.876 0.84-1.876 1.876s0.84 1.876 1.876 1.876c0.001 0 0.002 0 0.003 0h-0c1.035-0.002 1.873-0.841 1.873-1.876 0-0.517-0.209-0.985-0.547-1.324l0 0z"></path>
<path fill="#474f54" style="fill: var(--color1, #474f54)" d="M41.503 24.372c0-0.517-0.21-0.986-0.55-1.326l-2.65 2.652c0.339 0.338 0.807 0.547 1.324 0.547 1.035 0 1.874-0.838 1.876-1.873v-0z"></path>
<path fill="#575c60" style="fill: var(--color17, #575c60)" d="M20.333 43.667l-3.957-3.957-16.376 16.339 7.951 7.951 16.376-16.339z"></path>
<path fill="#333637" style="fill: var(--color9, #333637)" d="M24.327 47.661l-3.994-3.994-16.358 16.358 3.976 3.975z"></path>
</symbol>
<symbol id="icon-team-builder" viewBox="0 0 64 64">
<path fill="#efeff4" style="fill: var(--color5, #efeff4)" d="M64 14.454v41.788h-64v-41.788l3.75-3.787h56.5z"></path>
<path fill="#dadae5" style="fill: var(--color3, #dadae5)" d="M64 14.454v41.788h-32v-45.575h28.25z"></path>
<path fill="#474f54" style="fill: var(--color1, #474f54)" d="M0 0h64v15.515h-64z"></path>
<path fill="#32393f" style="fill: var(--color2, #32393f)" d="M32 0h32v15.515h-32z"></path>
<path fill="#ff637b" style="fill: var(--color18, #ff637b)" d="M7.758 5.818h3.685v3.879h-3.685zM15.128 5.818h3.685v3.879h-3.685zM22.497 5.818h3.685v3.879h-3.685z"></path>
<path fill="#ff637b" style="fill: var(--color18, #ff637b)" d="M45.576 42.245v21.755h-11.221v-3.71h-3.74v3.71h-11.221v-21.755l11.37-9.275h3.105z"></path>
<path fill="#dadae5" style="fill: var(--color3, #dadae5)" d="M11.636 22.303h41.697v3.879h-41.697z"></path>
<path fill="#c9c9d3" style="fill: var(--color4, #c9c9d3)" d="M32 22.303h20.364v3.879h-20.364z"></path>
<path fill="#e63950" style="fill: var(--color19, #e63950)" d="M45.576 42.245v21.755h-11.637v-3.71h-1.939v-27.32h1.435z"></path>
<path fill="#efeff4" style="fill: var(--color5, #efeff4)" d="M30.061 45.576h3.878v3.879h-3.878z"></path>
<path fill="#dadae5" style="fill: var(--color3, #dadae5)" d="M32 45.576h1.939v3.879h-1.939z"></path>
<path fill="#676e74" style="fill: var(--color8, #676e74)" d="M50.424 45.779l-2.452 2.706-15.487-13.526-15.488 13.526-2.452-2.706 17.94-15.718z"></path>
<path fill="#474f54" style="fill: var(--color1, #474f54)" d="M32 30.061l18.424 15.718-2.518 2.706-15.906-13.526z"></path>
</symbol>
</defs>
</svg>
